<?xml version="1.0" encoding="UTF-8"?>
<svg xmlns="http://www.w3.org/2000/svg" width="215" height="32" fill="none">
  <g clip-path="url(#a)">
    <path d="M28.193 10.808a5.43 5.43 0 0 0 3.01-.91A5.407 5.407 0 0 0 33.2 7.472a5.39 5.39 0 0 0-1.175-5.89A5.424 5.424 0 0 0 26.12.413a5.416 5.416 0 0 0-2.432 1.99 5.393 5.393 0 0 0 .674 6.823 5.427 5.427 0 0 0 3.832 1.583Z" fill="#371E56"></path>
    <path d="M22.553 26.747c-2.787 0-5.49-.949-7.664-2.688a12.213 12.213 0 0 1-4.292-6.878 6.365 6.365 0 0 1-.292-1.904V7.973a5.13 5.13 0 0 0-1.51-3.633 5.16 5.16 0 0 0-7.286 0A5.13 5.13 0 0 0 0 7.973v7.05c0 9.354 7.64 17.042 17.016 16.856 3.007-.06 5.94-.93 8.492-2.517a16.641 16.641 0 0 0 6-6.5 12.24 12.24 0 0 1-8.954 3.885Z" fill="#2BC4C3"></path>
    <path d="M33.351 15.07a1.477 1.477 0 0 0-1.483-1.479H24.51a1.486 1.486 0 0 0-1.484 1.48v.206a6.334 6.334 0 0 1-1.536 4.128 6.377 6.377 0 0 1-8.187 1.254 6.347 6.347 0 0 1-2.707-3.478 12.199 12.199 0 0 0 3.09 5.781 12.251 12.251 0 0 0 5.645 3.356c2.152.585 4.424.572 6.57-.037a12.25 12.25 0 0 0 5.605-3.42 16.534 16.534 0 0 0 1.845-7.607v-.184Z" fill="url(#b)"></path>
    <path d="M96.926 6.08c-.926.03-1.649.657-1.649 1.613s.72 1.613 1.649 1.613c.957 0 1.676-.657 1.676-1.613s-.72-1.613-1.676-1.613ZM108.341 11.904c-2.514 0-4.311 1.284-5.093 2.837l-.058-2.12a.44.44 0 0 0-.141-.328.449.449 0 0 0-.337-.12h-.835a.424.424 0 0 0-.452.449v12.84a.42.42 0 0 0 .449.448h1.256a.425.425 0 0 0 .449-.448v-7.696c.21-1.881 1.649-3.913 4.403-3.913 2.545-.03 4.252 1.822 4.252 4.72v6.896a.413.413 0 0 0 .124.325.42.42 0 0 0 .325.123h1.235a.425.425 0 0 0 .45-.448v-7.175c-.007-3.852-2.433-6.39-6.027-6.39ZM133.718 11.904c-4.134 0-6.947 3.105-6.947 7.136 0 4.122 3.055 7.137 7.308 7.137 2.395 0 3.924-.746 5.001-1.522a.442.442 0 0 0 .169-.47.428.428 0 0 0-.08-.158l-.509-.806c-.154-.268-.358-.268-.599-.09a6.208 6.208 0 0 1-3.772 1.232c-2.966 0-5.151-1.912-5.451-4.66h10.805a.433.433 0 0 0 .479-.447v-.478c.003-4.097-2.632-6.874-6.404-6.874Zm4.371 6.062h-9.2c.419-2.539 2.306-4.24 4.881-4.24 2.306 0 4.103 1.641 4.313 4.18l.006.06ZM155.268 12.172h-.959a.424.424 0 0 0-.449.45l-.06 2.03c-.959-1.493-2.779-2.746-5.482-2.746-3.743-.002-6.617 3.043-6.617 7.134s2.933 7.137 6.678 7.137c2.395 0 4.133-1.077 5.211-2.538v1.758c0 2.687-1.917 4.747-5.241 4.747a8.887 8.887 0 0 1-4.612-1.232c-.268-.153-.478-.12-.628.154l-.509.836c-.155.27-.09.479.154.628 1.235.747 2.965 1.462 5.719 1.462 4.702 0 7.255-2.955 7.255-6.838V12.62a.454.454 0 0 0-.285-.418.45.45 0 0 0-.175-.031Zm-6.53 12.064c-2.695 0-4.911-2.21-4.911-5.196 0-2.986 2.216-5.196 4.911-5.196 2.966 0 4.972 2.21 4.972 5.196 0 3.017-2.006 5.196-4.972 5.196ZM198.274 7.696h-1.169a.425.425 0 0 0-.449.448v6.506c-.954-1.539-2.779-2.746-5.361-2.746-3.743 0-6.617 3.045-6.617 7.136s2.933 7.137 6.677 7.137c2.575 0 4.403-1.194 5.451-2.77l.06 2.06a.423.423 0 0 0 .449.448h.959a.425.425 0 0 0 .449-.449V8.141a.433.433 0 0 0-.125-.323.42.42 0 0 0-.324-.122Zm-6.562 16.54c-2.695 0-4.912-2.21-4.912-5.196 0-2.986 2.217-5.196 4.912-5.196 2.965 0 4.97 2.21 4.97 5.196.003 3.017-2.002 5.196-4.97 5.196ZM214.557 12.172h-.959a.425.425 0 0 0-.449.448l-.066 2.03c-.927-1.508-2.808-2.746-5.503-2.746-3.745 0-6.619 3.045-6.619 7.136s2.933 7.137 6.677 7.137c2.577 0 4.403-1.165 5.451-2.747l.06 2.03a.42.42 0 0 0 .273.421c.056.021.116.03.176.027h.959a.427.427 0 0 0 .422-.272.438.438 0 0 0 .027-.176V12.622a.423.423 0 0 0-.449-.45Zm-6.559 12.064c-2.695 0-4.91-2.21-4.91-5.196 0-2.986 2.215-5.196 4.91-5.196 2.965 0 4.972 2.21 4.972 5.196-.006 3.017-2.013 5.196-4.978 5.196h.006ZM97.584 12.172h-1.229c-.248 0-.449.2-.449.448v12.84c0 .247.201.448.45.448h1.228c.248 0 .45-.2.45-.448V12.62a.449.449 0 0 0-.45-.448ZM181.653 12.172h-.959a.425.425 0 0 0-.449.448l-.06 2.001c-.957-1.493-2.814-2.717-5.509-2.717-3.744 0-6.619 3.045-6.619 7.136s2.932 7.137 6.677 7.137c2.576 0 4.402-1.165 5.451-2.747l.06 2.03a.423.423 0 0 0 .449.448h.959a.432.432 0 0 0 .325-.123.412.412 0 0 0 .124-.325V12.622a.426.426 0 0 0-.449-.45Zm-6.559 12.064c-2.695 0-4.91-2.21-4.91-5.196 0-2.986 2.215-5.196 4.91-5.196 2.965 0 4.972 2.21 4.972 5.196 0 3.017-2.007 5.196-4.972 5.196ZM167.605 12.622c-.793-.471-1.84-.671-2.982-.557-1.561.153-2.885.923-3.541 2.582l-.086-2.025a.456.456 0 0 0-.142-.328.45.45 0 0 0-.337-.12h-.958a.449.449 0 0 0-.45.448v12.84a.449.449 0 0 0 .45.448h1.227a.448.448 0 0 0 .449-.448V17.92c.164-2.114 1.167-3.848 3.371-4.189a3.788 3.788 0 0 1 2.101.348.451.451 0 0 0 .58-.141l.463-.673a.441.441 0 0 0-.008-.52.438.438 0 0 0-.137-.123ZM125.902 23.703c-.175-.275-.351-.37-.584-.183-.534.43-1.455.944-2.596.732-1.489-.278-2.527-1.647-2.527-3.159v-7.19h4.568a.446.446 0 0 0 .406-.255l.398-.836a.46.46 0 0 0 .043-.22.458.458 0 0 0-.232-.365.45.45 0 0 0-.217-.055h-4.966V8.14a.448.448 0 0 0-.449-.445h-1.167a.448.448 0 0 0-.449.448v4.028h-2.397a.453.453 0 0 0-.317.131.434.434 0 0 0-.131.317v.836a.448.448 0 0 0 .449.448h2.365v7.525c0 3.046 2.036 4.748 4.822 4.748 1.931 0 3.07-.84 3.364-1.105a.444.444 0 0 0 .114-.585c-.114-.18-.195-.311-.497-.784ZM91.793 12.172h-2.387a.695.695 0 0 0-.671.516l-.236.885c-1.011-1.149-2.274-1.669-4.035-1.669-3.825 0-6.71 3.063-6.71 7.127 0 4.063 2.846 7.126 6.622 7.126a5.76 5.76 0 0 0 4.297-1.82l.06.88a.687.687 0 0 0 .752.679h2.308c.438 0 .722-.273.722-.693V12.865c0-.42-.284-.693-.722-.693Zm-4.068 9.417c-.632.64-1.508.979-2.53.979-1.986 0-3.485-1.52-3.485-3.54s1.499-3.54 3.486-3.54c2.083 0 3.483 1.422 3.483 3.54a3.505 3.505 0 0 1-.954 2.561ZM61.063 11.907c-4.132 0-7.456 3.079-7.456 7.136s3.324 7.134 7.456 7.134c4.132 0 7.454-3.078 7.454-7.134 0-4.056-3.323-7.136-7.454-7.136Zm0 10.718c-1.977 0-3.504-1.583-3.504-3.582 0-1.972 1.527-3.583 3.504-3.583 2.006 0 3.502 1.611 3.502 3.583 0 2-1.497 3.583-3.502 3.583v-.001ZM74.72 12.172h-4.218a.697.697 0 0 0-.695.692v1.578a.693.693 0 0 0 .695.693h.926v10.868a2.012 2.012 0 0 1-.591 1.42c-.378.376-.89.589-1.424.59a.437.437 0 0 0-.436.436v3.104a.435.435 0 0 0 .435.436 6.012 6.012 0 0 0 4.244-1.754 5.978 5.978 0 0 0 1.757-4.232V12.864a.692.692 0 0 0-.693-.692ZM73.384 5.369c-1.35.027-2.388.95-2.388 2.324 0 1.373 1.039 2.324 2.388 2.324 1.375 0 2.444-.953 2.444-2.324 0-1.372-1.069-2.324-2.444-2.324ZM52.257 22.49a.55.55 0 0 0-.6-.329 2.42 2.42 0 0 1-.542.046c-1.14-.092-1.804-.902-1.804-2.014V8.385a.692.692 0 0 0-.689-.69h-2.6a.695.695 0 0 0-.694.693v11.808c0 3.498 2.502 5.986 6.003 5.986a5.336 5.336 0 0 0 1.544-.239.695.695 0 0 0 .437-.933l-1.055-2.52Z" fill="#371E56"></path>
  </g>
  <defs>
    <linearGradient id="b" x1="14.265" y1="35.143" x2="23.172" y2="15.223" gradientUnits="userSpaceOnUse">
      <stop offset=".29" stop-color="#0C9898"></stop>
      <stop offset="1" stop-color="#2BC4C3"></stop>
    </linearGradient>
    <clipPath id="a">
      <path fill="#fff" d="M0 0h215v32H0z"></path>
    </clipPath>
  </defs>
</svg>
